# xmcd
#
# Track frame offsets:
#	150
#	12484
#	26465
#	38325
#	48361
#	62579
#	72082
#	82754
#	95366
#	106577
#	117047
#
# Disc length: 1720 seconds
#
# Revision: 1
# Processed by: cddbd v1.5.2PL0 Copyright (c) Steve Scherf et al.
# Submitted via: audiograbber 1.83.01
#
DISCID=7106b60b
DTITLE=Lynn Anderson - Listen To A Country Song
DYEAR=1900
DGENRE=Country
TTITLE0=Listen To A Country Song
TTITLE1=Reason To Believe
TTITLE2=There's A Party Going On
TTITLE3=Everybody's Reaching Out For Someone
TTITLE4=If I Can't Be Your Woman
TTITLE5=Just Keep It Up
TTITLE6=Fool Me
TTITLE7=Take Me To Your World
TTITLE8=You're Everything
TTITLE9=It Don't Do No Good To Be A Good Girl
TTITLE10=That's What Loving You Has Meant to Me
EXTD=
EXTT0=
EXTT1=
EXTT2=
EXTT3=
EXTT4=
EXTT5=
EXTT6=
EXTT7=
EXTT8=
EXTT9=
EXTT10=
PLAYORDER=
